<svg xmlns="http://www.w3.org/2000/svg" width="16" height="16" viewBox="0 0 16 16" fill="none">
  <path fill-rule="evenodd" clip-rule="evenodd" d="M8.8908 1.37233C9.15618 1.46707 9.33334 1.71842 9.33334 2.0002V6.0002L13.3333 6.0002C13.5909 6.0002 13.8255 6.1486 13.9358 6.38138C14.0461 6.61416 14.0124 6.88966 13.8493 7.08902L7.84931 14.4224C7.67088 14.6404 7.3746 14.7228 7.10922 14.6281C6.84384 14.5333 6.66667 14.282 6.66667 14.0002L6.66668 10.0002H2.66667C2.40908 10.0002 2.17454 9.8518 2.06423 9.61902C1.95392 9.38624 1.98758 9.11074 2.1507 8.91137L8.1507 1.57804C8.32914 1.35995 8.62542 1.2776 8.8908 1.37233ZM4.0735 8.66687H7.33334C7.51015 8.66687 7.67972 8.7371 7.80475 8.86213C7.92977 8.98715 8.00001 9.15672 8.00001 9.33353V12.1326L11.9265 7.33353L8.66667 7.33353C8.29848 7.33353 8.00001 7.03505 8.00001 6.66686V3.8678L4.0735 8.66687Z" fill="#FD8140"/>
</svg>