<svg xmlns="http://www.w3.org/2000/svg" width="16" height="16" viewBox="0 0 16 16" fill="none">
  <path fill-rule="evenodd" clip-rule="evenodd" d="M8.00008 2.66683C6.89551 2.66683 6.00008 3.56226 6.00008 4.66683C6.00008 5.7714 6.89551 6.66683 8.00008 6.66683C9.10465 6.66683 10.0001 5.7714 10.0001 4.66683C10.0001 3.56226 9.10465 2.66683 8.00008 2.66683ZM4.66675 4.66683C4.66675 2.82588 6.15913 1.3335 8.00008 1.3335C9.84103 1.3335 11.3334 2.82588 11.3334 4.66683C11.3334 6.50778 9.84103 8.00016 8.00008 8.00016C6.15913 8.00016 4.66675 6.50778 4.66675 4.66683ZM4.05539 13.3335H11.9448C11.6274 11.4417 9.98208 10.0002 8.00008 10.0002C6.01808 10.0002 4.37277 11.4417 4.05539 13.3335ZM2.66675 14.0002C2.66675 11.0546 5.05456 8.66683 8.00008 8.66683C10.9456 8.66683 13.3334 11.0546 13.3334 14.0002C13.3334 14.3684 13.0349 14.6668 12.6667 14.6668H3.33341C2.96522 14.6668 2.66675 14.3684 2.66675 14.0002Z" fill="#CFD6E1"/>
</svg>