<svg xmlns="http://www.w3.org/2000/svg" width="16" height="16" viewBox="0 0 16 16" fill="none">
  <g clip-path="url(#clip0_1593_15023)">
    <path d="M8.59375 8.90625V10.2212H9.38782C9.4032 10.2212 9.42334 10.2208 9.44788 10.2205C10.8866 10.1976 12.153 10.5247 13.2092 11.1931C13.5009 11.3777 13.5876 11.7638 13.4031 12.0554C13.2842 12.2434 13.0815 12.3463 12.8744 12.3463C12.7601 12.3463 12.6445 12.3151 12.5408 12.2494C11.6937 11.7134 10.6594 11.4517 9.46777 11.4703C9.43506 11.4708 9.4082 11.4712 9.3877 11.4712H8.59375V12.875C8.59375 13.2202 8.31396 13.5 7.96875 13.5C7.62354 13.5 7.34375 13.2202 7.34375 12.875V11.4712H6.58105C6.56055 11.4712 6.53369 11.4708 6.50098 11.4703C5.30872 11.4517 4.27502 11.7134 3.42798 12.2494C3.13623 12.434 2.75024 12.3472 2.56555 12.0554C2.38098 11.7638 2.4679 11.3777 2.75952 11.1931C3.8158 10.5247 5.08215 10.1986 6.52087 10.2205C6.54541 10.2208 6.56555 10.2212 6.58093 10.2212H7.34375V8.90625H6.58105C6.56042 8.90625 6.53357 8.90588 6.50085 8.9054C5.32788 8.88586 4.30591 9.14856 3.45923 9.68445C3.16748 9.86902 2.78149 9.7821 2.5968 9.49048C2.41223 9.19873 2.49915 8.81274 2.79077 8.62817C3.8468 7.95996 5.10107 7.63269 6.521 7.65552C6.54541 7.65588 6.56555 7.65625 6.58093 7.65625H7.34375V6.34656H6.65784C6.64014 6.34656 6.61621 6.34619 6.58655 6.3457C5.03296 6.32263 4.28076 6.76855 3.92346 7.14758C3.68677 7.39868 3.29126 7.41028 3.04004 7.17346C2.78882 6.93677 2.77722 6.54114 3.01404 6.29004C3.5437 5.72827 4.59741 5.06482 6.60583 5.09583C6.62732 5.09619 6.6449 5.09656 6.65784 5.09656H7.34375V3.80957H6.4375C6.19165 3.80957 5.39246 3.96204 4.96509 4.3219C4.8479 4.42065 4.70496 4.46887 4.56287 4.46887C4.38489 4.46887 4.20813 4.39319 4.08447 4.24646C3.86218 3.98242 3.89587 3.58813 4.15991 3.36572C4.88318 2.75671 6.00671 2.55957 6.4375 2.55957H9.53125C10.0018 2.55957 11.0905 2.72852 11.8423 3.36755C12.1053 3.59106 12.1373 3.9856 11.9137 4.24854C11.6903 4.5116 11.2958 4.54358 11.0327 4.31995C10.5835 3.93811 9.81348 3.80957 9.53125 3.80957H8.59375V5.09644H9.33411H9.35864C10.3082 5.09644 12.0142 5.25525 12.9625 6.29834C13.1947 6.55383 13.1759 6.9491 12.9204 7.18127C12.8007 7.29004 12.6501 7.34375 12.5002 7.34375C12.3302 7.34375 12.1609 7.2749 12.0375 7.13916C11.5791 6.63489 10.6044 6.34644 9.36096 6.34644C9.35315 6.34644 9.34558 6.34644 9.33777 6.34644L9.31091 6.34656H8.59375V7.65625H9.38782C9.4032 7.65625 9.42334 7.65588 9.44788 7.65552C10.8866 7.63281 12.153 7.95972 13.2092 8.62817C13.5009 8.81274 13.5876 9.19873 13.4031 9.49048C13.2842 9.67847 13.0815 9.78137 12.8744 9.78137C12.7601 9.78137 12.6445 9.75012 12.5408 9.68445C11.6937 9.14844 10.6594 8.88635 9.46777 8.9054C9.43506 8.90588 9.4082 8.90625 9.3877 8.90625H8.59375ZM15.375 14.2917C15.7202 14.2917 16 14.0119 16 13.6667V2.5C16 1.12146 14.8785 0 13.5 0H2.5C1.12146 0 0 1.12146 0 2.5V13.5C0 14.8785 1.12146 16 2.5 16H13.5C14.8785 16 16 14.8785 16 13.5C16 13.1548 15.7202 12.875 15.375 12.875C15.0298 12.875 14.75 13.1548 14.75 13.5C14.75 14.1892 14.1892 14.75 13.5 14.75H2.5C1.81079 14.75 1.25 14.1892 1.25 13.5V2.5C1.25 1.81079 1.81079 1.25 2.5 1.25H13.5C14.1892 1.25 14.75 1.81079 14.75 2.5V13.6667C14.75 14.0119 15.0298 14.2917 15.375 14.2917Z" fill="#CFD6E1"/>
  </g>
  <defs>
    <clipPath id="clip0_1593_15023">
      <rect width="16" height="16" fill="white"/>
    </clipPath>
  </defs>
</svg>